<svg id="Layer_1" data-name="Layer 1" xmlns="http://www.w3.org/2000/svg" xmlns:xlink="http://www.w3.org/1999/xlink" viewBox="0 0 500 250"><defs><style>.cls-1{fill:none;}.cls-2{fill:#3d2600;}.cls-3{fill:#115417;}.cls-4{fill:#020202;}.cls-5{fill:#d3b775;}.cls-6{opacity:0.88;}.cls-7{clip-path:url(#clip-path);}.cls-8{clip-path:url(#clip-path-7);}.cls-9{fill:#d2b77f;}</style><clipPath id="clip-path"><rect class="cls-1" x="215.73" y="106.63" width="181.59" height="35.96"/></clipPath><clipPath id="clip-path-7"><rect class="cls-1" x="217" y="105.37" width="181.59" height="35.96"/></clipPath></defs><title>207_500x250_dark</title><circle class="cls-2" cx="151.74" cy="81.04" r="2.38"/><path class="cls-2" d="M179.46,87.16a45.44,45.44,0,0,0-21.19-8.35l-.43,5a40.48,40.48,0,0,1,18.29,7.2Z"/><path class="cls-2" d="M121.59,96.35a2.38,2.38,0,1,0-1.6-4.13c-.1.1-.18.21-.28.31a2.37,2.37,0,0,0,1.88,3.82Z"/><path class="cls-2" d="M145.77,84.09l-.67-5a45.61,45.61,0,0,0-20.19,8.81l3.1,3.93A40.48,40.48,0,0,1,145.77,84.09Z"/><path class="cls-2" d="M192.86,117.88l5-.44a45.57,45.57,0,0,0-9.11-21.27L185,99.57A40.53,40.53,0,0,1,192.86,117.88Z"/><path class="cls-2" d="M119.56,100.47l-4-3a45.56,45.56,0,0,0-8.15,20l4.93.56A40.55,40.55,0,0,1,119.56,100.47Z"/><circle class="cls-2" cx="182.66" cy="93.21" r="2.38"/><path class="cls-2" d="M195.92,121.64A2.38,2.38,0,1,0,198.3,124,2.37,2.37,0,0,0,195.92,121.64Z"/><path class="cls-2" d="M182.89,152.88a2.38,2.38,0,1,0,1.6,4.13l.15-.16a2.33,2.33,0,0,0,.63-1.59A2.37,2.37,0,0,0,182.89,152.88Z"/><path class="cls-2" d="M109.46,126.42a2.37,2.37,0,0,0,2.38-2.32V124a2.38,2.38,0,1,0-2.38,2.4Z"/><path class="cls-2" d="M158.06,164.66l.22,4.9a45.57,45.57,0,0,0,21.32-8.42l-3.35-3.68A40.48,40.48,0,0,1,158.06,164.66Z"/><path class="cls-2" d="M185.12,148.79l3.81,3.22a45.58,45.58,0,0,0,9-21.65l-5-.21A40.49,40.49,0,0,1,185.12,148.79Z"/><path class="cls-2" d="M151.74,165.12a2.38,2.38,0,1,0,2.38,2.38A2.38,2.38,0,0,0,151.74,165.12Z"/><path class="cls-2" d="M124.61,160.29a45.55,45.55,0,0,0,20.69,9.05l.42-4.88a40.62,40.62,0,0,1-17.8-7.8Z"/><path class="cls-2" d="M112.29,130.3l-4.91.21A45.52,45.52,0,0,0,115.62,151l3.74-3.15A40.53,40.53,0,0,1,112.29,130.3Z"/><path class="cls-2" d="M121.56,151.85a2.38,2.38,0,1,0,2.38,2.38A2.38,2.38,0,0,0,121.56,151.85Z"/><path class="cls-3" d="M189.65,124.28a37,37,0,1,0-37,37A37.09,37.09,0,0,0,189.65,124.28Z"/><path class="cls-4" d="M151.05,76.16a49.65,49.65,0,1,0,49.64,49.64A49.7,49.7,0,0,0,151.05,76.16Zm36.11,21.61a45.56,45.56,0,0,1,9.11,21.28l-5,.44a40.66,40.66,0,0,0-7.88-18.31Zm9.53,27.86a2.38,2.38,0,1,1-2.38-2.38A2.38,2.38,0,0,1,196.69,125.63ZM118.1,94.14c.1-.1.19-.21.28-.31a2.4,2.4,0,0,1,1.6-.62,2.38,2.38,0,1,1-2.38,2.38A2.49,2.49,0,0,1,118.1,94.14ZM151,88.85a37,37,0,1,1-37,37A37.08,37.08,0,0,1,151,88.85Zm30.06,3.59a2.38,2.38,0,1,1-2.38,2.38A2.38,2.38,0,0,1,181.06,92.44Zm-24.4-12a45.56,45.56,0,0,1,21.19,8.36l-3.33,3.89a40.48,40.48,0,0,0-18.29-7.2Zm-6.53-.14a2.38,2.38,0,1,1-2.37,2.38A2.39,2.39,0,0,1,150.13,80.27Zm-6,5.43a40.25,40.25,0,0,0-17.76,7.73l-3.09-3.94a45.6,45.6,0,0,1,20.19-8.8ZM114,99.08l4,3a40.68,40.68,0,0,0-7.21,17.53l-4.93-.56A45.56,45.56,0,0,1,114,99.08Zm-6.1,24.19a2.37,2.37,0,0,1,2.37,2.36v.08a2.38,2.38,0,1,1-2.37-2.44ZM114,152.61a45.58,45.58,0,0,1-8.25-20.49l4.91-.21a40.71,40.71,0,0,0,7.07,17.55Zm5.93,5.6a2.38,2.38,0,1,1,2.38-2.37A2.37,2.37,0,0,1,120,158.21ZM143.69,171A45.46,45.46,0,0,1,123,161.89l3.31-3.63a40.53,40.53,0,0,0,17.8,7.81Zm6.44.54a2.38,2.38,0,1,1,2.39-2.38A2.37,2.37,0,0,1,150.13,171.49Zm6.54-.32-.22-4.9a40.43,40.43,0,0,0,18.19-7.2l3.35,3.67A45.48,45.48,0,0,1,156.67,171.17ZM183,158.46l-.16.15a2.34,2.34,0,0,1-1.6.63,2.38,2.38,0,1,1,1.76-.78Zm4.28-4.84-3.81-3.22a40.51,40.51,0,0,0,7.84-18.64l5,.21A45.53,45.53,0,0,1,187.32,153.62Z"/><path class="cls-5" d="M152.66,74.55a49.65,49.65,0,1,0,49.64,49.64A49.7,49.7,0,0,0,152.66,74.55Zm36.11,21.62a45.53,45.53,0,0,1,9.11,21.27l-5,.44A40.53,40.53,0,0,0,185,99.57ZM198.3,124a2.38,2.38,0,1,1-2.38-2.38A2.39,2.39,0,0,1,198.3,124ZM119.71,92.53c.1-.1.18-.21.28-.31a2.46,2.46,0,1,1-.28.31Zm32.9-5.29a37,37,0,1,1-37,37A37.09,37.09,0,0,1,152.61,87.24Zm30,3.59a2.38,2.38,0,1,1-2.37,2.38A2.38,2.38,0,0,1,182.66,90.83Zm-24.39-12a45.44,45.44,0,0,1,21.19,8.35l-3.33,3.89a40.48,40.48,0,0,0-18.29-7.2Zm-6.53-.14A2.38,2.38,0,1,1,149.37,81,2.37,2.37,0,0,1,151.74,78.67Zm-6,5.42A40.48,40.48,0,0,0,128,91.82l-3.09-3.93a45.52,45.52,0,0,1,20.18-8.81Zm-30.2,13.38,4,3A40.55,40.55,0,0,0,112.35,118l-4.93-.56A45.61,45.61,0,0,1,115.57,97.47Zm-6.11,24.19a2.38,2.38,0,0,1,2.38,2.36v.08a2.38,2.38,0,1,1-2.38-2.44ZM115.62,151a45.52,45.52,0,0,1-8.24-20.49l4.91-.21a40.53,40.53,0,0,0,7.07,17.55Zm5.94,5.61a2.38,2.38,0,1,1,2.38-2.38A2.39,2.39,0,0,1,121.56,156.61Zm23.74,12.73a45.55,45.55,0,0,1-20.69-9.05l3.31-3.64a40.53,40.53,0,0,0,17.8,7.81Zm6.44.54a2.38,2.38,0,1,1,2.38-2.38A2.37,2.37,0,0,1,151.74,169.88Zm6.54-.32-.22-4.9a40.48,40.48,0,0,0,18.19-7.2l3.35,3.68A45.47,45.47,0,0,1,158.28,169.56Zm26.36-12.71-.15.16a2.37,2.37,0,1,1,.78-1.75A2.33,2.33,0,0,1,184.64,156.85Zm4.29-4.84-3.81-3.22A40.61,40.61,0,0,0,193,130.15l5,.21A45.62,45.62,0,0,1,188.93,152Z"/><polygon class="cls-4" points="182.7 124.06 181.36 125.87 180.07 125.56 182.7 124.06"/><polygon class="cls-4" points="120.95 124.06 119.61 125.87 122.31 124.72 120.95 124.06"/><path class="cls-2" d="M151.83,145.72,121,124.06l30.87-21.66,30.87,21.66Z"/><path class="cls-4" d="M150.49,147.53l-30.87-21.66,30.87-21.66,30.87,21.66Zm-24.83-21.66,24.83,17.42,24.84-17.42-24.84-17.42Z"/><path class="cls-5" d="M151.83,145.72,121,124.06l30.87-21.66,30.87,21.66ZM127,124.06l24.83,17.42,24.84-17.42-24.84-17.42Z"/><path class="cls-4" d="M150.32,131.89a6.4,6.4,0,1,1,6.39-6.4A6.41,6.41,0,0,1,150.32,131.89Zm0-9.33a2.93,2.93,0,1,0,2.93,2.93A2.93,2.93,0,0,0,150.32,122.56Z"/><path class="cls-5" d="M151.92,130.28a6.4,6.4,0,1,1,6.4-6.4A6.4,6.4,0,0,1,151.92,130.28Zm0-9.33a2.93,2.93,0,1,0,2.93,2.93A2.93,2.93,0,0,0,151.92,121Z"/><polygon class="cls-1" points="151.83 106.64 127 124.06 151.83 141.48 168.01 130.13 168.01 126.63 173 126.63 176.66 124.06 151.83 106.64"/><path class="cls-4" d="M174,133.91a8.56,8.56,0,0,0-2-1.82l-3.29,2.31a4.63,4.63,0,0,1,2.53,1.67,4.33,4.33,0,0,1,.57,4.43,5.34,5.34,0,0,1-5.85,3c-1.09-.29-3.63-1.41-3.63-5.54s-1.07-6.51-3.49-7.63a18.08,18.08,0,0,0,9.67-15.6c0-11-9.87-17.79-19-17.79A20.17,20.17,0,0,0,133,106.06a8,8,0,0,0-7.25,3.26,8.54,8.54,0,0,0-1.44,7,7.43,7.43,0,0,0,2.1,3.9l2.92-2a4.3,4.3,0,0,1-1.63-2.64,5.1,5.1,0,0,1,.89-4.2c1.87-2.64,5.3-1.87,6.44-1.09.88.6,2.21,1.51,2.21,4.52,0,2.22-.07,8.86-.13,14.7,0,4.59-.08,8.69-.08,9.76,0,1.72-1.49,3.44-3.63,4.19a4.87,4.87,0,0,1-5.66-2.91c-1-2.36.43-5.3,2.7-7.1l-2.93-2c-.28.26-1.21,1.24-1.45,1.53a8.4,8.4,0,0,0-1.55,9,8.57,8.57,0,0,0,7.84,5.22,6.65,6.65,0,0,0,2.21-.35c3.56-1.25,5.95-4.26,5.95-7.48,0-1,0-4.87.08-9.25a17.63,17.63,0,0,0,9,2.72,18.91,18.91,0,0,0,5.45-.8c2.63.55,3.8,2.43,3.8,6,0,5.35,3.21,8.11,6.22,8.91a7.25,7.25,0,0,0,1.89.24,8.94,8.94,0,0,0,8-5A7.81,7.81,0,0,0,174,133.91Zm-24.37-4.69c-2.78,0-5.71-1.11-8.93-3.36,0-4.74.09-9.32.09-11.09,0-4.85-2.61-6.63-3.74-7.41l-.46-.28a16.87,16.87,0,0,1,13-6.67c7.46,0,15.51,5.47,15.51,14.3C165,122.57,157.94,129.22,149.58,129.22Z"/><path class="cls-5" d="M176.33,131.73a8.56,8.56,0,0,0-2-1.82l-3.29,2.32a4.52,4.52,0,0,1,2.52,1.66,4.32,4.32,0,0,1,.58,4.44,5.35,5.35,0,0,1-5.85,3c-1.09-.29-3.63-1.41-3.63-5.54s-1.07-6.51-3.49-7.63a18.09,18.09,0,0,0,9.66-15.6c0-11-9.86-17.79-19-17.79a20.2,20.2,0,0,0-16.47,9.14,8,8,0,0,0-7.24,3.26,8.55,8.55,0,0,0-1.44,7,8.82,8.82,0,0,0,2.36,4.22l2.92-2.05a5.38,5.38,0,0,1-1.89-3,5.06,5.06,0,0,1,.88-4.2c1.87-2.63,5.31-1.87,6.45-1.09.87.6,2.2,1.51,2.2,4.52,0,2.22-.06,8.86-.12,14.7,0,4.59-.09,8.69-.09,9.76,0,1.72-1.49,3.44-3.62,4.19a4.88,4.88,0,0,1-5.67-2.91c-1-2.35-.23-4.6,2-6.4l-2.93-2.05a8.52,8.52,0,0,0,5.51,15,6.63,6.63,0,0,0,2.2-.36c3.56-1.25,6-4.26,6-7.48,0-1,0-4.87.08-9.25a17.62,17.62,0,0,0,9,2.73,19,19,0,0,0,5.45-.81c2.62.55,3.8,2.43,3.8,6.05,0,5.35,3.21,8.1,6.21,8.9a7.38,7.38,0,0,0,1.9.24,8.92,8.92,0,0,0,8-5A7.81,7.81,0,0,0,176.33,131.73ZM152,127c-2.78,0-5.71-1.11-8.93-3.36.05-4.74.09-9.32.09-11.09,0-4.85-2.61-6.63-3.75-7.41a4.92,4.92,0,0,0-.45-.28,16.85,16.85,0,0,1,12.94-6.67c7.47,0,15.52,5.47,15.52,14.3C167.38,120.4,160.32,127,152,127Z"/><path class="cls-5" d="M136.68,130.85l1.43,1v4.27l-1.91-1.36Z"/><path class="cls-5" d="M137.17,116.93c.54-.36,1-.66,1-.66v-4.34l-1.27.94Z"/><path class="cls-5" d="M159.1,140.6l1.05-.75a14.92,14.92,0,0,1-.35-2.11,14.09,14.09,0,0,1,0-1.86l-1.39,1C158,137.16,159.1,140.6,159.1,140.6Z"/><path class="cls-5" d="M164,115.15l1.48,1a13.6,13.6,0,0,0,.36-2,13.93,13.93,0,0,0,.05-1.91l-1.56-1.08Z"/><path class="cls-4" d="M169.52,119.09c.13-.37.64-1.67.64-1.67l.26,2.51Z"/><path class="cls-4" d="M164.76,136.88c-.07-.74-.1-2.48-.1-2.48l.84,1.78Z"/><path class="cls-4" d="M142.51,139.29a5.75,5.75,0,0,0,.3-1.54c0-.67.1-.7.1-.7l.54,2.85Z"/><path class="cls-4" d="M143.12,112.82c0-.63-.07-2-.07-2l.77,1.71Z"/><g class="cls-6"><g class="cls-7"><path d="M215.73,140.21V109a2.44,2.44,0,0,1,.18-.93,2.21,2.21,0,0,1,.51-.76,2.17,2.17,0,0,1,.75-.51,2.39,2.39,0,0,1,.94-.18h8.68a10.51,10.51,0,0,1,4.28.88,11.08,11.08,0,0,1,3.5,2.38,11.45,11.45,0,0,1,2.38,3.52,10.64,10.64,0,0,1,.87,4.28,11.17,11.17,0,0,1-.37,2.89,10.76,10.76,0,0,1-1.1,2.65,11,11,0,0,1-1.82,2.31,12.15,12.15,0,0,1-2.53,1.88l7.17,11.48a2.49,2.49,0,0,1,.2,2.25,2.4,2.4,0,0,1-.5.75,2.25,2.25,0,0,1-.77.51,2.41,2.41,0,0,1-3-1l-7.93-12.7H220.5v11.49a2.39,2.39,0,0,1-2.39,2.38,2.39,2.39,0,0,1-2.38-2.38m4.76-28.81V124h6.3a6.15,6.15,0,0,0,4.44-1.85,6.6,6.6,0,0,0,1.33-2,6,6,0,0,0,.5-2.42,6.1,6.1,0,0,0-.5-2.45,6.33,6.33,0,0,0-3.35-3.35,6,6,0,0,0-2.42-.49Z"/></g><g class="cls-7"><path d="M253.66,140.21a2.39,2.39,0,0,1-2.38,2.38,2.37,2.37,0,0,1-2.38-2.38V109a2.37,2.37,0,0,1,2.38-2.38,2.39,2.39,0,0,1,2.38,2.38Z"/></g><g class="cls-7"><path d="M298.76,124.61a18,18,0,1,1-5.28-12.7,18,18,0,0,1,4,5.8,17.86,17.86,0,0,1,1.31,6.9m-18-13.21a13.15,13.15,0,0,0-5.09,1,13.58,13.58,0,0,0-4.26,2.92,13.34,13.34,0,0,0-2.91,4.25,13,13,0,0,0-.95,5.08,13.21,13.21,0,1,0,13.21-13.21"/></g><g class="cls-7"><path d="M316.15,106.63a9,9,0,0,1,3.61.73,9.35,9.35,0,0,1,5,5,9.13,9.13,0,0,1,.73,3.61,9,9,0,0,1-2.12,6,11.31,11.31,0,0,1,2.41,1.87,11,11,0,0,1,2.81,4.93,11.22,11.22,0,0,1,.36,2.84,10.52,10.52,0,0,1-.88,4.29,11.21,11.21,0,0,1-2.37,3.51,10.91,10.91,0,0,1-3.5,2.38,10.52,10.52,0,0,1-4.29.88h-8.67a2.17,2.17,0,0,1-.92-.19,2.49,2.49,0,0,1-.75-.51,2.34,2.34,0,0,1-.52-.75,2.24,2.24,0,0,1-.19-.93V109a2.24,2.24,0,0,1,.19-.93,2.34,2.34,0,0,1,.52-.75,2.49,2.49,0,0,1,.75-.51,2.33,2.33,0,0,1,.92-.19Zm-4.56,4.77v9.1h4.56a4.38,4.38,0,0,0,1.77-.36,4.64,4.64,0,0,0,2.41-2.44,4.46,4.46,0,0,0,0-3.51,4.59,4.59,0,0,0-1-1.45,4.79,4.79,0,0,0-1.45-1,4.49,4.49,0,0,0-1.75-.36h-4.56Zm0,13.86v12.57h6.29a6.25,6.25,0,0,0,4.44-1.85,6.28,6.28,0,0,0,1.34-2,6.1,6.1,0,0,0,.5-2.45,6,6,0,0,0-.5-2.42,6.3,6.3,0,0,0-1.35-2,6.14,6.14,0,0,0-2-1.35,6,6,0,0,0-2.43-.5Z"/></g><g class="cls-7"><path d="M359.82,137.83a2.38,2.38,0,1,1,0,4.76H339a2.44,2.44,0,0,1-.95-.18,2.52,2.52,0,0,1-.75-.5,2.28,2.28,0,0,1-.5-.76,2.23,2.23,0,0,1-.19-.94V109a2.24,2.24,0,0,1,.19-.93,2.19,2.19,0,0,1,.5-.76,2.38,2.38,0,0,1,.75-.51,2.44,2.44,0,0,1,.95-.18h20.79a2.38,2.38,0,0,1,1.68,4.07,2.3,2.3,0,0,1-1.68.7H341.41v10.83h13.21a2.39,2.39,0,0,1,2.39,2.38,2.39,2.39,0,0,1-2.39,2.39H341.41v10.83Z"/></g><g class="cls-7"><path d="M394.94,111.4h-8.88v28.81a2.39,2.39,0,0,1-2.38,2.38,2.39,2.39,0,0,1-2.39-2.38V111.4h-8.87a2.33,2.33,0,0,1-1.69-.7,2.39,2.39,0,0,1,1.69-4.07h22.52a2.39,2.39,0,0,1,2.38,2.38,2.39,2.39,0,0,1-2.38,2.39"/></g></g><g class="cls-8"><path class="cls-9" d="M217,138.94V107.75a2.44,2.44,0,0,1,.68-1.7,2.52,2.52,0,0,1,.75-.5,2.44,2.44,0,0,1,.95-.18h8.67a10.64,10.64,0,0,1,4.28.87,11.16,11.16,0,0,1,5.88,5.9,10.51,10.51,0,0,1,.88,4.28,11.62,11.62,0,0,1-.37,2.89,11,11,0,0,1-1.1,2.65,11.12,11.12,0,0,1-1.83,2.32,12,12,0,0,1-2.52,1.87l7.17,11.48a2.54,2.54,0,0,1,.38,1.31,2.39,2.39,0,0,1-.18.94,2.31,2.31,0,0,1-.51.76,2.34,2.34,0,0,1-.76.5,2.44,2.44,0,0,1-.93.18,2.38,2.38,0,0,1-2.05-1.17l-7.93-12.69h-6.7v11.48a2.39,2.39,0,0,1-2.38,2.39,2.33,2.33,0,0,1-1.69-.7,2.31,2.31,0,0,1-.69-1.69m4.76-28.81v12.56h6.29a6.09,6.09,0,0,0,2.45-.49,6,6,0,0,0,2-1.36,6.69,6.69,0,0,0,1.34-2,6,6,0,0,0,.49-2.42,6.16,6.16,0,0,0-.49-2.45,6.42,6.42,0,0,0-1.35-2,6.22,6.22,0,0,0-2-1.34,6.07,6.07,0,0,0-2.43-.5Z"/></g><g class="cls-8"><path class="cls-9" d="M254.93,138.94a2.39,2.39,0,0,1-2.39,2.39,2.39,2.39,0,0,1-2.38-2.39V107.75a2.37,2.37,0,0,1,2.38-2.38,2.37,2.37,0,0,1,2.39,2.38Z"/></g><g class="cls-8"><path class="cls-9" d="M300,123.35a18,18,0,1,1-5.28-12.7,18.17,18.17,0,0,1,4,5.8,17.61,17.61,0,0,1,1.32,6.9m-18-13.22a12.9,12.9,0,0,0-5.09,1A13,13,0,0,0,272.7,114a13.23,13.23,0,0,0-2.91,4.25,13,13,0,0,0-1,5.07,13.21,13.21,0,1,0,13.22-13.21"/></g><g class="cls-8"><path class="cls-9" d="M317.42,105.37a9,9,0,0,1,3.61.73,9.4,9.4,0,0,1,5,5,9.41,9.41,0,0,1-1.38,9.57,11.88,11.88,0,0,1,2.41,1.86,11.38,11.38,0,0,1,1.74,2.31,10.36,10.36,0,0,1,1.06,2.63,11.17,11.17,0,0,1,.37,2.84,10.68,10.68,0,0,1-.88,4.28,11.54,11.54,0,0,1-2.37,3.52,11.41,11.41,0,0,1-3.51,2.38,10.67,10.67,0,0,1-4.28.87h-8.67a2.24,2.24,0,0,1-.93-.19,2.52,2.52,0,0,1-.75-.5,2.28,2.28,0,0,1-.52-.76,2.41,2.41,0,0,1-.19-.93V107.75a2.41,2.41,0,0,1,.19-.93,2.28,2.28,0,0,1,.52-.76,2.52,2.52,0,0,1,.75-.5,2.24,2.24,0,0,1,.93-.19Zm-4.56,4.76v9.1h4.56a4.3,4.3,0,0,0,1.76-.36,4.51,4.51,0,0,0,1.44-1,4.64,4.64,0,0,0,1-1.45,4.43,4.43,0,0,0,0-3.5,4.74,4.74,0,0,0-2.44-2.44,4.3,4.3,0,0,0-1.74-.36Zm0,13.87v12.56h6.29a6.09,6.09,0,0,0,2.45-.49,6.26,6.26,0,0,0,2-1.35,6.56,6.56,0,0,0,1.34-2,6.13,6.13,0,0,0,.49-2.45,6.07,6.07,0,0,0-.49-2.43,6.33,6.33,0,0,0-3.35-3.35,6.1,6.1,0,0,0-2.43-.49Z"/></g><g class="cls-8"><path class="cls-9" d="M361.08,136.56a2.37,2.37,0,0,1,2.38,2.38,2.37,2.37,0,0,1-2.38,2.39H340.29a2.39,2.39,0,0,1-.94-.18,2.17,2.17,0,0,1-.75-.51,2.38,2.38,0,0,1-.51-.75,2.44,2.44,0,0,1-.18-.95V107.75a2.41,2.41,0,0,1,.18-.93,2.25,2.25,0,0,1,.51-.77,2.29,2.29,0,0,1,.75-.5,2.39,2.39,0,0,1,.94-.18h20.79a2.36,2.36,0,0,1,2.38,2.38,2.37,2.37,0,0,1-2.38,2.38h-18.4V121h13.21a2.37,2.37,0,0,1,2.38,2.39,2.37,2.37,0,0,1-2.38,2.38H342.68v10.83Z"/></g><g class="cls-8"><path class="cls-9" d="M396.2,110.13h-8.87v28.81a2.39,2.39,0,1,1-4.77,0V110.13h-8.88a2.39,2.39,0,0,1-2.38-2.38,2.37,2.37,0,0,1,2.38-2.38H396.2a2.36,2.36,0,0,1,2.38,2.38,2.37,2.37,0,0,1-2.38,2.38"/></g></svg>